<svg id="visual" viewBox="0 0 900 600" width="900" height="600" xmlns="http://www.w3.org/2000/svg" xmlns:xlink="http://www.w3.org/1999/xlink" version="1.1"><rect x="0" y="0" width="900" height="600" fill="#FAEAB1"></rect><path d="M0 428L129 356L257 427L386 358L514 439L643 418L771 373L900 398L900 601L771 601L643 601L514 601L386 601L257 601L129 601L0 601Z" fill="#e5ba73"></path><path d="M0 455L129 444L257 429L386 472L514 480L643 457L771 417L900 443L900 601L771 601L643 601L514 601L386 601L257 601L129 601L0 601Z" fill="#ddad66"></path><path d="M0 505L129 501L257 441L386 500L514 469L643 454L771 455L900 473L900 601L771 601L643 601L514 601L386 601L257 601L129 601L0 601Z" fill="#d5a159"></path><path d="M0 522L129 530L257 511L386 542L514 538L643 531L771 527L900 539L900 601L771 601L643 601L514 601L386 601L257 601L129 601L0 601Z" fill="#cd954c"></path><path d="M0 569L129 546L257 553L386 548L514 555L643 562L771 568L900 539L900 601L771 601L643 601L514 601L386 601L257 601L129 601L0 601Z" fill="#c58940"></path></svg>